<svg xmlns="http://www.w3.org/2000/svg" aria-hidden="true" style="position:absolute;width:0;height:0;overflow:hidden">
  <defs>
    <symbol id="icon-users" viewBox="0 0 32 32">
      <path d="M12 5.466c-1.732 0-3.394.691-4.619 1.916s-1.916 2.886-1.916 4.619c0 1.732.691 3.394 1.916 4.619s2.886 1.916 4.619 1.916c1.732 0 3.394-.691 4.619-1.916s1.916-2.886 1.916-4.619-.691-3.394-1.916-4.619A6.534 6.534 0 0 0 12 5.466zm8 0a1.2 1.2 0 1 0 0 2.4 4.134 4.134 0 0 1 0 8.268 1.2 1.2 0 1 0 0 2.4c1.732 0 3.394-.691 4.619-1.916s1.916-2.886 1.916-4.619c0-1.732-.691-3.394-1.916-4.619S21.733 5.464 20 5.464zm-8 2.4c1.097 0 2.146.437 2.922 1.213a4.13 4.13 0 0 1-.001 5.844 4.13 4.13 0 0 1-5.844-.001c-.775-.775-1.213-1.825-1.213-2.922s.437-2.146 1.213-2.922a4.133 4.133 0 0 1 2.922-1.213zm0 12.268c-2.425 0-4.64.641-6.322 1.762S2.8 24.705 2.8 26.665a1.2 1.2 0 1 0 2.4 0c0-.987.596-1.963 1.809-2.772s2.997-1.359 4.991-1.359c1.993 0 3.777.551 4.991 1.359s1.809 1.785 1.809 2.772a1.2 1.2 0 1 0 2.4 0c0-1.959-1.196-3.647-2.878-4.769S14.426 20.134 12 20.134zm10.944.335a1.201 1.201 0 0 0-1.442.883l-.002.008a1.201 1.201 0 0 0 .883 1.442l.008.002c1.381.326 2.532.928 3.291 1.631s1.119 1.453 1.119 2.231a1.2 1.2 0 1 0 2.4 0c0-1.545-.756-2.942-1.887-3.991s-2.643-1.799-4.369-2.206z"/>
    </symbol>
    <symbol id="icon-trash" viewBox="0 0 32 32">
      <path d="M4 6.699h-.001a1.3 1.3 0 0 0-1.3 1.3v.002a1.3 1.3 0 0 0 1.3 1.3H28.001a1.3 1.3 0 0 0 1.3-1.3v-.002a1.3 1.3 0 0 0-1.3-1.3H6.668z"/>
      <path d="M13.332 1.367a3.963 3.963 0 0 0-3.965 3.965v2.669a1.3 1.3 0 0 0 1.3 1.3h.001a1.3 1.3 0 0 0 1.297-1.3V5.332c0-.363.146-.708.402-.965s.602-.402.965-.402h5.336c.363 0 .708.146.965.402s.402.602.402.965v2.669a1.3 1.3 0 0 0 1.297 1.3h.001a1.3 1.3 0 0 0 1.3-1.3V5.332c0-1.052-.416-2.061-1.16-2.805s-1.753-1.16-2.805-1.16zM6.668 6.699h-.001a1.3 1.3 0 0 0-1.3 1.3v18.669c0 1.052.416 2.061 1.16 2.805s1.753 1.16 2.805 1.16h13.336c1.051 0 2.061-.416 2.805-1.16s1.16-1.753 1.16-2.805V7.999a1.3 1.3 0 0 0-1.3-1.3h-.001a1.3 1.3 0 0 0-1.297 1.3v18.669a1.367 1.367 0 0 1-1.367 1.363H9.332a1.363 1.363 0 0 1-1.367-1.363V7.999a1.3 1.3 0 0 0-1.297-1.3z"/>
      <path d="M13.332 13.367a1.3 1.3 0 0 0-1.297 1.3v8.001a1.3 1.3 0 0 0 1.297 1.297h.001a1.3 1.3 0 0 0 1.3-1.297v-8.001a1.3 1.3 0 0 0-1.3-1.3h-.001zM18.668 13.367h-.001a1.3 1.3 0 0 0-1.3 1.3v8.001a1.3 1.3 0 0 0 1.3 1.297h.001a1.3 1.3 0 0 0 1.297-1.297v-8.001a1.3 1.3 0 0 0-1.297-1.3z"/>
    </symbol>
    <symbol id="icon-plus" viewBox="0 0 32 32">
      <path d="M14.5 4v10.5H4a1.5 1.5 0 0 0 0 3h10.5V28h3V17.5H28a1.5 1.5 0 0 0 0-3H17.5V4z"/>
    </symbol>
    <symbol id="icon-coins" viewBox="0 0 32 32">
      <path d="M20.572 6.8c-2.984 0-5.691.524-7.759 1.444-1.034.46-1.917 1.017-2.588 1.722s-1.141 1.61-1.141 2.606c0 .996.47 1.901 1.141 2.606s1.553 1.262 2.588 1.722c2.068.919 4.775 1.444 7.759 1.444s5.691-.524 7.759-1.444c1.034-.46 1.916-1.017 2.587-1.722s1.138-1.61 1.138-2.606c0-.996-.466-1.901-1.137-2.606s-1.553-1.262-2.587-1.722C26.264 7.325 23.557 6.8 20.573 6.8zm0 2.4c2.696 0 5.13.499 6.784 1.234.827.368 1.455.796 1.825 1.184s.475.687.475.953c0 .266-.105.564-.475.953s-.998.814-1.825 1.181c-1.654.735-4.088 1.238-6.784 1.238s-5.133-.502-6.787-1.238c-.827-.368-1.452-.792-1.822-1.181s-.478-.687-.478-.953c0-.266.108-.564.478-.953s.995-.817 1.822-1.184c1.654-.735 4.091-1.234 6.787-1.234z"/>
      <path d="M10.284 11.372a1.2 1.2 0 0 0-1.2 1.2v13.712c0 .992.466 1.898 1.134 2.603s1.546 1.261 2.578 1.722c2.065.921 4.774 1.447 7.775 1.447s5.71-.526 7.775-1.447c1.032-.461 1.91-1.017 2.578-1.722s1.131-1.611 1.131-2.603V12.571a1.2 1.2 0 1 0-2.4 0v13.713c0 .265-.104.562-.472.95s-.991.816-1.816 1.184c-1.649.736-4.084 1.238-6.797 1.238s-5.147-.502-6.797-1.238c-.825-.368-1.448-.796-1.816-1.184s-.475-.685-.475-.95V12.571a1.2 1.2 0 0 0-1.2-1.2z"/>
      <path d="M11.397-.053C8.42-.049 5.722.473 3.663 1.391c-1.033.46-1.911 1.018-2.581 1.722S-.055 4.722-.055 5.716c0 1.067.537 2.021 1.288 2.753s1.73 1.309 2.881 1.784a1.2 1.2 0 0 0 1.566-.645l.003-.008a1.2 1.2 0 0 0-.645-1.563l-.008-.003c-.952-.393-1.684-.857-2.122-1.284s-.563-.753-.563-1.034c0-.263.106-.561.475-.95s.995-.816 1.822-1.184c1.653-.736 4.086-1.237 6.787-1.237l.067-.003h-.004a14.277 14.277 0 0 1 8.222 2.109 1.2 1.2 0 0 0 1.651-.385l.003-.005a1.2 1.2 0 0 0-.388-1.65l-.005-.003A16.663 16.663 0 0 0 11.4-.051zm-1.113 18.281a1.2 1.2 0 0 0-1.2 1.2c0 .992.466 1.895 1.134 2.6s1.546 1.264 2.578 1.725c2.065.921 4.774 1.447 7.775 1.447s5.71-.526 7.775-1.447c1.032-.461 1.91-1.02 2.578-1.725s1.131-1.608 1.131-2.6a1.2 1.2 0 1 0-2.4 0c0 .265-.107.562-.475.95s-.988.816-1.813 1.184c-1.649.736-4.084 1.238-6.797 1.238s-5.147-.502-6.797-1.238c-.825-.368-1.448-.796-1.816-1.184s-.475-.685-.475-.95a1.2 1.2 0 0 0-1.2-1.2z"/>
      <path d="M1.144 4.516a1.2 1.2 0 0 0-1.2 1.2v13.713c0 1.068.537 2.021 1.288 2.753s1.73 1.309 2.881 1.784a1.201 1.201 0 0 0 1.566-.642l.003-.008a1.2 1.2 0 0 0-.645-1.566l-.008-.003c-.952-.393-1.684-.857-2.122-1.284s-.563-.753-.563-1.034V5.716a1.2 1.2 0 0 0-1.2-1.2z"/>
      <path d="M1.144 11.372a1.2 1.2 0 0 0-1.2 1.2c0 1.067.537 2.021 1.288 2.753s1.73 1.309 2.881 1.784a1.201 1.201 0 0 0 1.566-.642l.003-.008a1.2 1.2 0 0 0-.645-1.566l-.008-.003c-.952-.393-1.684-.857-2.122-1.284s-.563-.753-.563-1.034a1.2 1.2 0 0 0-1.2-1.2z"/>
    </symbol>
    <symbol id="icon-menu-burger" viewBox="0 0 32 32">
      <path d="M4 7.002a1 1 0 0 0 0 2h24a1 1 0 0 0 0-2zm0 8a1 1 0 0 0 0 2h24a1 1 0 0 0 0-2zm0 8a1 1 0 0 0 0 2h24a1 1 0 0 0 0-2z"/>
    </symbol>
    <symbol id="icon-flask" viewBox="0 0 32 32">
      <path d="M20 12.841V5.333h1.333a1.335 1.335 0 0 0 .943-2.277 1.334 1.334 0 0 0-.943-.391H10.666a1.335 1.335 0 0 0-.943 2.277c.251.25.589.391.943.391h1.333v7.508L5.03 23.082c-1.807 2.656.096 6.251 3.307 6.251h15.324c3.213 0 5.115-3.595 3.307-6.251L20 12.841z"/>
    </symbol>
    <symbol id="icon-users-2" viewBox="0 0 32 32">
      <path d="M21.334 22.667v2.667H2.667v-2.667s0-5.333 9.333-5.333 9.333 5.333 9.333 5.333zM16.667 10a4.66 4.66 0 0 0-5.576-4.578 4.668 4.668 0 0 0-3.4 6.362c.353.853.951 1.582 1.719 2.094s1.67.786 2.593.786a4.667 4.667 0 0 0 4.667-4.667zm4.587 7.333a7.096 7.096 0 0 1 2.747 5.333v2.667h5.333v-2.667s0-4.84-8.08-5.333zM20 5.333a4.515 4.515 0 0 0-2.573.787 6.666 6.666 0 0 1 0 7.76 4.525 4.525 0 0 0 2.573.787 4.667 4.667 0 0 0 0-9.334z"/>
    </symbol>
    <symbol id="icon-local-pharmacy" viewBox="0 0 32 32">
      <path d="M21.333 18.667h-4v4h-2.667v-4h-4V16h4v-4h2.667v4h4zm6.667-12h-3.533L26 2.467l-3.133-1.133-1.947 5.333H4v2.667l2.667 8-2.667 8v2.667h24v-2.667l-2.667-8 2.667-8V6.667z"/>
    </symbol>
    <symbol id="icon-logout" viewBox="0 0 32 32">
      <path d="M8 2.667a4.003 4.003 0 0 0-4 4v18.667a4.003 4.003 0 0 0 4 4h8a4.003 4.003 0 0 0 4-4V6.667a4.003 4.003 0 0 0-4-4H8zm13.724 7.057a1.333 1.333 0 0 1 1.886 0l5.333 5.333a1.333 1.333 0 0 1 0 1.886l-5.333 5.333a1.333 1.333 0 0 1-1.885-1.886l3.057-3.057H13.334a1.335 1.335 0 0 1-.943-2.277c.251-.25.589-.391.943-.391h11.448l-3.057-3.057a1.333 1.333 0 0 1 0-1.886z"/>
    </symbol>
    <symbol id="icon-shopping-cart" viewBox="0 0 32 32">
      <path d="M9.333 24c-1.467 0-2.653 1.2-2.653 2.667s1.187 2.667 2.653 2.667S12 28.134 12 26.667C12 25.2 10.8 24 9.333 24zm-8-20c0 .733.6 1.333 1.333 1.333h1.333l4.8 10.12-1.8 3.253c-.973 1.787.307 3.96 2.333 3.96h14.667c.733 0 1.333-.6 1.333-1.333S24.732 20 23.999 20H9.332l1.467-2.667h9.933c1 0 1.88-.547 2.333-1.373l4.773-8.653a1.329 1.329 0 0 0-1.16-1.973H6.945l-.893-1.907a1.327 1.327 0 0 0-1.2-.76H2.665c-.733 0-1.333.6-1.333 1.333zm21.333 20c-1.467 0-2.653 1.2-2.653 2.667s1.187 2.667 2.653 2.667c1.467 0 2.667-1.2 2.667-2.667S24.133 24 22.666 24z"/>
    </symbol>
    <symbol id="icon-dashboard" viewBox="0 0 32 32">
      <path d="M5.333 17.333h8c.733 0 1.333-.6 1.333-1.333V5.333c0-.733-.6-1.333-1.333-1.333h-8C4.6 4 4 4.6 4 5.333V16c0 .733.6 1.333 1.333 1.333zm0 10.667h8c.733 0 1.333-.6 1.333-1.333v-5.333c0-.733-.6-1.333-1.333-1.333h-8c-.733 0-1.333.6-1.333 1.333v5.333C4 27.4 4.6 28 5.333 28zm13.334 0h8C27.4 28 28 27.4 28 26.667V16c0-.733-.6-1.333-1.333-1.333h-8c-.733 0-1.333.6-1.333 1.333v10.667c0 .733.6 1.333 1.333 1.333zM17.333 5.333v5.333c0 .733.6 1.333 1.333 1.333h8c.733 0 1.333-.6 1.333-1.333V5.333c0-.733-.6-1.333-1.333-1.333h-8c-.733 0-1.333.6-1.333 1.333z"/>
    </symbol>
    <symbol id="icon-filter" viewBox="0 0 32 32">
      <path d="M2.665 2.286a1.715 1.715 0 0 0-1.306 2.823l-.002-.002L11.62 17.241v8.094c.001.666.381 1.244.937 1.527l.01.005 5.335 2.665a1.714 1.714 0 0 0 2.477-1.531V17.242L30.642 5.108a1.714 1.714 0 0 0-1.308-2.821zm3.697 3.428h19.277l-8.281 9.79a1.705 1.705 0 0 0-.406 1.107v8.612l-1.902-.951v-7.661a1.71 1.71 0 0 0-.408-1.11l.002.002z"/>
    </symbol>
    <symbol id="icon-eye-off" viewBox="0 0 32 32">
      <path d="M16 4a13.51 13.51 0 0 0-3.104.354 1.336 1.336 0 0 0-.992 1.613l-.002-.009a1.336 1.336 0 0 0 1.61.991l-.009.002a10.84 10.84 0 0 1 2.493-.285H16c7.831 0 12.491 8.322 13.052 9.351-.682 1.179-1.407 2.335-2.285 3.378a1.33 1.33 0 0 0 .158 1.877l.002.002c.23.194.53.312.858.312.409 0 .775-.184 1.019-.474l.002-.002a26.025 26.025 0 0 0 3.038-4.483 1.33 1.33 0 0 0 .01-1.233l.003.008S26.35 4.002 16.003 3.999zM8.257 6.757a1.345 1.345 0 0 0-.99.267l.003-.002a25.917 25.917 0 0 0-7.111 8.347c-.1.183-.159.4-.159.631 0 .218.052.424.145.605l-.004-.008S5.649 28 15.999 28H16.02h-.001a14.76 14.76 0 0 0 8.708-3.021 1.331 1.331 0 0 0 .247-1.871l.002.003a1.331 1.331 0 0 0-1.871-.247l.003-.002a12.083 12.083 0 0 1-7.118 2.469c-7.825-.006-12.482-8.312-13.045-9.344 1.532-2.638 3.513-4.993 5.941-6.847a1.331 1.331 0 0 0 .247-1.871l.002.003a1.332 1.332 0 0 0-.875-.513l-.007-.001zm4.007 5.441a5.322 5.322 0 0 0-1.694 3.809 5.322 5.322 0 0 0 3.333 5.038 5.325 5.325 0 0 0 5.899-1.309 1.33 1.33 0 0 0-.065-1.885l-.001-.001a1.33 1.33 0 0 0-1.885.065l-.001.001a2.68 2.68 0 0 1-1.903.851 2.671 2.671 0 0 1-2.715-2.715 2.679 2.679 0 0 1 .851-1.903 1.33 1.33 0 0 0 .066-1.887l.001.001a1.33 1.33 0 0 0-1.887-.066l.001-.001z"/>
      <path d="M1.333 0H1.33C.963 0 .63.149.389.389c-.242.241-.392.575-.392.944s.15.703.392.944L29.722 31.61c.241.242.575.392.944.392s.703-.15.944-.392c.242-.241.392-.575.392-.944s-.15-.703-.392-.944L2.277.389A1.33 1.33 0 0 0 1.336 0h-.003z"/>
    </symbol>
    <symbol id="icon-eye" viewBox="0 0 32 32">
      <path d="M16 4C5.651 4 .142 15.403.142 15.403a1.327 1.327 0 0 0 .004 1.202l-.004-.008S5.65 28 16 28s15.858-11.403 15.858-11.403a1.327 1.327 0 0 0-.004-1.202l.003.008S26.349 4 15.999 4zm0 2.667c7.818 0 12.466 8.279 13.042 9.333-.576 1.054-5.224 9.333-13.042 9.333S3.534 17.054 2.958 16C3.534 14.946 8.182 6.667 16 6.667z"/>
      <path d="M16 10.667c-2.93 0-5.333 2.404-5.333 5.333s2.404 5.333 5.333 5.333c2.93 0 5.333-2.404 5.333-5.333S18.929 10.667 16 10.667zm0 2.666c1.488 0 2.667 1.178 2.667 2.667S17.489 18.667 16 18.667c-1.489 0-2.667-1.178-2.667-2.667s1.178-2.667 2.667-2.667z"/>
    </symbol>
    <symbol id="icon-edit" viewBox="0 0 32 32">
      <path d="M25.336 1.598a5.07 5.07 0 0 0-3.586 1.485l-18 18a1.302 1.302 0 0 0-.334.569l-.002.009-2 7.332a1.3 1.3 0 0 0 1.607 1.596l-.009.002 7.332-2c.227-.063.422-.18.578-.336l18-18a5.072 5.072 0 0 0 1.102-1.645h-.004a5.07 5.07 0 0 0 0-3.882h.004a5.083 5.083 0 0 0-4.688-3.13zm0 2.601c.325 0 .645.063.945.188a2.49 2.49 0 0 1 1.34 1.336 2.474 2.474 0 0 1 0 1.89c-.124.3-.31.571-.539.801L9.328 26.172l-4.805 1.313 1.309-4.809L23.59 4.922a2.464 2.464 0 0 1 1.746-.723z"/>
    </symbol>
    <symbol id="icon-close" viewBox="0 0 32 32">
      <path d="m23.13 7.13-16 16a1.23 1.23 0 0 0 0 1.74 1.23 1.23 0 0 0 1.74 0l16-16a1.23 1.23 0 0 0 0-1.74 1.23 1.23 0 0 0-1.74 0z"/>
      <path d="M8 6.769c-.34 0-.647.138-.87.361a1.23 1.23 0 0 0 0 1.74l16 16a1.23 1.23 0 0 0 1.74 0 1.23 1.23 0 0 0 0-1.74l-16-16A1.226 1.226 0 0 0 8 6.769z"/>
    </symbol>
    <symbol id="icon-chevron-down" viewBox="0 0 32 32">
      <path d="M8 10.5h-.004c-.413 0-.788.167-1.059.438-.273.272-.441.647-.441 1.063s.169.791.441 1.062l8 8c.272.273.647.441 1.063.441s.791-.169 1.062-.441l8-8c.273-.272.441-.647.441-1.063s-.169-.791-.441-1.062c-.272-.273-.647-.441-1.063-.441s-.791.169-1.062.441l-6.938 6.938-6.938-6.938a1.498 1.498 0 0 0-1.059-.438h-.004z"/>
    </symbol>
    <symbol id="icon-calendar" viewBox="0 0 32 32">
      <path d="M6.668 3.832C4.385 3.832 2.5 5.717 2.5 8v18.664c0 2.283 1.885 4.168 4.168 4.168h18.664c2.283 0 4.168-1.884 4.168-4.168V8c0-2.283-1.885-4.168-4.168-4.168zm0 3h18.664c.662 0 1.168.506 1.168 1.168v18.664c0 .662-.506 1.168-1.168 1.168H6.668A1.147 1.147 0 0 1 5.5 26.664V8c0-.662.506-1.168 1.168-1.168z"/>
      <path d="M21.332 1.168a1.5 1.5 0 0 0-1.5 1.5V8a1.5 1.5 0 0 0 3 0V2.668a1.5 1.5 0 0 0-1.5-1.5zM10.668 1.168a1.5 1.5 0 0 0-1.5 1.5V8a1.5 1.5 0 0 0 3 0V2.668a1.5 1.5 0 0 0-1.5-1.5zM4 11.832a1.5 1.5 0 0 0 0 3h24a1.5 1.5 0 0 0 0-3z"/>
    </symbol>
    <symbol id="icon-dot" viewBox="0 0 29 32">
      <path d="M28.359 16.003c0 7.632-6.187 13.82-13.82 13.82S.719 23.636.719 16.003c0-7.632 6.187-13.82 13.82-13.82s13.82 6.187 13.82 13.82z"/>
    </symbol>
  </defs>
</svg>
